<svg  xmlns="http://www.w3.org/2000/svg" aria-hidden="true" style="position:absolute;width:0;height:0;overflow:hidden">
  <defs>
    <symbol id="arrow-left" viewBox="0 0 32 32" >
      <path d="M16.3223 18.7608L10.2318 9.69963L16.3223 0.638428H13.338L7.24752 9.69963L13.338 18.7608H16.3223ZM9.07465 18.7608L2.98422 9.69963L9.07465 0.638428H6.09034L-8.7738e-05 9.69963L6.09034 18.7608H9.07465Z" fill="white" />
    </symbol>
         <symbol id="icon-cloud" viewBox="0 0 50 32">
            <path fill="#548cd2" d="M26.054.001c4.006-.081 5.867 3.425 9.439 4.6 3.857 1.27 9.586.258 12.158 2.509 2.513 2.199 1.081 5.433-.077 8.063-1.001 2.275-3.802 3.906-6.019 5.787-1.943 1.65-3.284 3.775-6.224 4.605-2.886.814-6.218-.71-9.279-.232-4.445.694-8.28 5.026-12.283 3.596-3.961-1.415.61-6.02-1.626-8.564-2.21-2.515-9.163-2.425-10.465-5.193-1.216-2.584 1.63-5.466 4.536-7.406 2.729-1.822 7.378-1.476 10.734-2.79C20.406 3.622 22.012.082 26.052 0z" opacity=".4" style="fill:var(--color1, #548cd2)"/>
        </symbol>
        <symbol id="icon-burger" viewBox="0 0 32 32">
            <path fill="#fff" d="M4 24v-2.667h16V24H4zm0-6.667v-2.667h24v2.667H4zm0-6.666V8h24v2.667H4z" style="fill:var(--color2, #fff)"/>
        </symbol>
                <symbol id="icon-arrow_back" viewBox="0 0 32 32">
            <path d="m7.65 18 11.2 11.2L16 32 0 16 16 0l2.85 2.8L7.65 14H32v4H7.65z"/>
        </symbol>
  </defs>
</svg>

