<svg  xmlns="http://www.w3.org/2000/svg">
  <defs>
    <!-- <symbol id="arrow-left" viewBox="0 0 32 32">    
  <path d="M16.3223 18.7608L10.2318 9.69963L16.3223 0.638428H13.338L7.24752 9.69963L13.338 18.7608H16.3223ZM9.07465 18.7608L2.98422 9.69963L9.07465 0.638428H6.09034L-8.7738e-05 9.69963L6.09034 18.7608H9.07465Z" fill="white" />
    </symbol> -->

    <symbol id="arrow-left" viewBox="0 0 32 32" >  
  <path d="M16.3223 18.7608L10.2318 9.69963L16.3223 0.638428H13.338L7.24752 9.69963L13.338 18.7608H16.3223ZM9.07465 18.7608L2.98422 9.69963L9.07465 0.638428H6.09034L-8.7738e-05 9.69963L6.09034 18.7608H9.07465Z" fill="white" />
 </symbol>
    <symbol id="arrow-right" viewBox="0 0 32 32" >  
  <path d="M0 18.7608L6.34328 9.69963L0 0.638428H3.10821L9.45149 9.69963L3.10821 18.7608H0ZM7.54851 18.7608L13.8918 9.69963L7.54851 0.638428H10.6567L17 9.69963L10.6567 18.7608H7.54851Z" fill="white" />
 </symbol>
  </defs>
</svg>
